<svg width="55" height="55" viewBox="0 0 55 55" fill="none" xmlns="http://www.w3.org/2000/svg">
<g id="loading (1) 1" clip-path="url(#clip0_3445_14252)">
<path id="Vector" d="M27.5005 10.2025C25.9948 10.2025 24.8398 9.0475 24.8398 7.54187V2.66063C24.8398 1.155 25.9948 0 27.5005 0C29.0061 0 30.1611 1.155 30.1611 2.66063V7.54187C30.1611 8.95813 29.0061 10.2025 27.5005 10.2025Z" fill="#B7EAE8"/>
<path id="Vector_2" d="M27.5005 54.9994C25.9948 54.9994 24.8398 53.8444 24.8398 52.3388V47.4575C24.8398 45.9519 25.9948 44.7969 27.5005 44.7969C29.0061 44.7969 30.1611 45.9519 30.1611 47.4575V52.3388C30.1611 53.8444 29.0061 54.9994 27.5005 54.9994Z" fill="#0A6F6C"/>
<path id="Vector_3" d="M17.4763 12.8659C16.5894 12.8659 15.7025 12.419 15.1732 11.5322L12.7807 7.36591C12.0657 6.12154 12.5057 4.43716 13.75 3.72904C14.9944 3.02091 16.6788 3.46091 17.3869 4.70529L19.7794 8.87154C20.4875 10.1159 20.0475 11.8003 18.8032 12.5084C18.4525 12.6872 17.9163 12.8659 17.4763 12.8659Z" fill="#DCF6F4"/>
<path id="Vector_4" d="M39.9168 51.6315C39.03 51.6315 38.1431 51.1847 37.6137 50.2978L35.2212 46.1315C34.5131 44.8872 34.9531 43.2028 36.1975 42.4947C37.4419 41.7865 39.1262 42.2265 39.8344 43.4709L42.2269 47.6372C42.935 48.8815 42.495 50.5659 41.2506 51.274C40.8037 51.5422 40.3637 51.6315 39.9168 51.6315Z" fill="#0D9490"/>
<path id="Vector_5" d="M10.2033 20.139C9.75646 20.139 9.31646 20.0497 8.86958 19.7815L4.70333 17.389C3.45896 16.6809 3.01896 14.9965 3.72708 13.7522C4.43521 12.5078 6.11958 12.0678 7.36396 12.7759L11.5302 15.1684C12.7746 15.8765 13.2146 17.5609 12.5065 18.8053C11.9771 19.699 11.0902 20.139 10.2033 20.139Z" fill="#F8FBFB"/>
<path id="Vector_6" d="M49.0525 42.5844C48.6056 42.5844 48.1656 42.495 47.7187 42.2269L43.4631 39.8344C42.2187 39.1262 41.7787 37.4419 42.4868 36.1975C43.195 34.9531 44.8794 34.5131 46.1237 35.2212L50.29 37.6137C51.5344 38.3218 51.9744 40.0062 51.2662 41.2506C50.8331 42.1375 49.9462 42.5844 49.0525 42.5844Z" fill="#11B9B5"/>
<path id="Vector_7" d="M52.3388 30.1572H47.4575C45.9519 30.1572 44.7969 29.0022 44.7969 27.4966C44.7969 25.9909 45.9519 24.8359 47.4575 24.8359H52.3388C53.8444 24.8359 54.9994 25.9909 54.9994 27.4966C54.9994 29.0022 53.8444 30.1572 52.3388 30.1572Z" fill="#58CECB"/>
<path id="Vector_8" d="M5.94622 42.5844C5.05935 42.5844 4.17248 42.1375 3.6431 41.2506C2.93498 40.0062 3.37497 38.3218 4.61935 37.6137L8.7856 35.2212C10.03 34.5131 11.7143 34.9531 12.4225 36.1975C13.1306 37.4419 12.6906 39.1262 11.4462 39.8344L7.27998 42.2269C6.9156 42.495 6.4756 42.5844 5.94622 42.5844Z" fill="#053736"/>
<path id="Vector_9" d="M44.7978 20.139C43.9109 20.139 43.024 19.6922 42.4947 18.8053C41.7865 17.5609 42.2265 15.8765 43.4709 15.1684L47.6372 12.7759C48.8815 12.0678 50.5659 12.5078 51.274 13.7522C51.9822 14.9965 51.5422 16.6809 50.2978 17.389L46.1315 19.7815C45.6847 20.0497 45.2447 20.139 44.7978 20.139Z" fill="#B7EAE8"/>
<path id="Vector_10" d="M15.084 51.6315C14.6371 51.6315 14.1971 51.5422 13.7502 51.274C12.5058 50.5659 12.0658 48.8815 12.774 47.6372L15.1665 43.4709C15.8746 42.2265 17.559 41.7865 18.8033 42.4947C20.0477 43.2028 20.4877 44.8872 19.7796 46.1315L17.3871 50.2978C16.8577 51.1847 15.9708 51.6315 15.084 51.6315Z" fill="#064A48"/>
<path id="Vector_11" d="M37.5234 12.8659C37.0765 12.8659 36.6365 12.7765 36.1897 12.5084C34.9453 11.8003 34.5053 10.1159 35.2134 8.87154L37.6059 4.70529C38.314 3.46091 39.9984 3.02091 41.2428 3.72904C42.4872 4.43716 42.9272 6.12154 42.219 7.36591L39.8265 11.5322C39.2972 12.3365 38.4103 12.8659 37.5234 12.8659Z" fill="#B7EAE8"/>
</g>
<defs>
<clipPath id="clip0_3445_14252">
<rect width="55" height="55" fill="white"/>
</clipPath>
</defs>
</svg>
