<svg width="101" height="89" viewBox="0 0 101 89" fill="none" xmlns="http://www.w3.org/2000/svg">
<g id="illustrator">
<path id="Vector" d="M50.9872 69.7401C51.4461 69.7401 51.8182 69.368 51.8182 68.9091C51.8182 68.4502 51.4461 68.0781 50.9872 68.0781C50.5283 68.0781 50.1562 68.4502 50.1562 68.9091C50.1562 69.368 50.5283 69.7401 50.9872 69.7401Z" fill="#0D9490"/>
<path id="Vector_2" d="M26.8477 7.16406V10.8101" stroke="#D9D9D9" stroke-linecap="round" stroke-linejoin="round"/>
<path id="Vector_3" d="M25.0117 8.99219H28.6663" stroke="#D9D9D9" stroke-linecap="round" stroke-linejoin="round"/>
<path id="Vector_4" d="M68.3511 30.1748C61.2539 30.1748 54.0296 29.8865 47.2717 28.0041C40.6409 26.1641 34.5528 22.5943 29.1261 18.4649C25.5733 15.777 22.3427 13.6318 17.73 13.954C13.2174 14.1982 8.90204 15.8833 5.41809 18.7617C-0.449547 23.9001 0.432294 33.4223 2.78105 40.087C6.30841 50.1519 17.0431 57.1642 26.1668 61.7006C36.7065 66.9663 48.2892 70.0273 59.8973 71.7825C70.0724 73.3342 83.1474 74.4534 91.9658 67.8142C100.063 61.7006 102.285 47.7608 100.301 38.3488C99.8195 35.5683 98.3389 33.0595 96.1376 31.2941C90.448 27.1307 81.9603 29.9119 75.5669 30.0476C73.1927 30.0985 70.7761 30.1578 68.3511 30.1748Z" fill="#DCF6F4"/>
<path id="Vector_5" d="M56.8759 2.201C57.3348 2.201 57.7069 1.82896 57.7069 1.37003C57.7069 0.911098 57.3348 0.539062 56.8759 0.539062C56.417 0.539062 56.0449 0.911098 56.0449 1.37003C56.0449 1.82896 56.417 2.201 56.8759 2.201Z" fill="#0D9490"/>
<path id="Vector_6" d="M13.6953 66.9297V70.5758" stroke="#D9D9D9" stroke-linecap="round" stroke-linejoin="round"/>
<path id="Vector_7" d="M11.875 68.7188H15.5211" stroke="#D9D9D9" stroke-linecap="round" stroke-linejoin="round"/>
<path id="Vector_8" d="M51.3305 88.2819C68.5216 88.2819 82.4578 87.4126 82.4578 86.3402C82.4578 85.2678 68.5216 84.3984 51.3305 84.3984C34.1393 84.3984 20.2031 85.2678 20.2031 86.3402C20.2031 87.4126 34.1393 88.2819 51.3305 88.2819Z" fill="#DCF6F4"/>
<path id="Vector_9" d="M76.3492 65.5285H22.5823C22.2225 65.5282 21.867 65.4498 21.5404 65.2987C21.2139 65.1476 20.9241 64.9273 20.6911 64.6531C20.458 64.3789 20.2873 64.0574 20.1907 63.7108C20.0942 63.3642 20.0741 63.0007 20.1318 62.6456L27.0085 20.9446C27.1014 20.3642 27.3984 19.8361 27.8461 19.4552C28.2938 19.0744 28.8627 18.8659 29.4505 18.8672H83.2174C83.577 18.8672 83.9322 18.9456 84.2584 19.0968C84.5846 19.248 84.874 19.4685 85.1064 19.7428C85.3388 20.0172 85.5087 20.3389 85.6042 20.6855C85.6997 21.0322 85.7185 21.3955 85.6594 21.7501L78.8167 63.4511C78.7215 64.0351 78.4203 64.5656 77.9676 64.9467C77.515 65.3278 76.9409 65.5342 76.3492 65.5285Z" fill="#0D9490"/>
<path id="Vector_10" d="M77.0186 17.7834L45.1038 3.53396C44.163 3.11394 43.0599 3.53606 42.6399 4.4768L32.5249 27.1315C32.1049 28.0723 32.527 29.1754 33.4677 29.5954L65.3826 43.8449C66.3233 44.2649 67.4264 43.8428 67.8465 42.9021L77.9614 20.2473C78.3815 19.3066 77.9593 18.2035 77.0186 17.7834Z" fill="white" stroke="#D9D9D9" stroke-linecap="round" stroke-linejoin="round"/>
<path id="Vector_11" d="M49.7734 22.1721C50.6135 20.9934 51.8353 20.1413 53.2317 19.7603C54.6281 19.3793 56.1133 19.4929 57.4356 20.0817C58.7579 20.6704 59.836 21.6983 60.4871 22.991C61.1383 24.2838 61.3224 25.7619 61.0084 27.1748" stroke="#11B9B5" stroke-width="0.57176" stroke-linecap="round" stroke-linejoin="round"/>
<path id="Vector_12" d="M65.4943 20.0062C65.4943 20.2563 65.2915 20.4591 65.0413 20.4591C64.7912 20.4591 64.5884 20.2563 64.5884 20.0062C64.5884 19.756 64.7912 19.5532 65.0413 19.5532C65.2915 19.5532 65.4943 19.756 65.4943 20.0062Z" fill="#11B9B5" stroke="#11B9B5" stroke-width="0.840823"/>
<path id="Vector_13" d="M52.8341 14.3734C52.8341 14.6235 52.6313 14.8263 52.3812 14.8263C52.131 14.8263 51.9282 14.6235 51.9282 14.3734C51.9282 14.1232 52.131 13.9204 52.3812 13.9204C52.6313 13.9204 52.8341 14.1232 52.8341 14.3734Z" fill="#11B9B5" stroke="#11B9B5" stroke-width="0.840823"/>
<path id="Vector_14" d="M76.1178 65.5161H22.088C21.4305 65.5138 20.8008 65.2511 20.3367 64.7854C19.8726 64.3198 19.612 63.6891 19.612 63.0317V24.9344C19.6041 24.6039 19.6623 24.2751 19.7831 23.9674C19.9038 23.6596 20.0848 23.3791 20.3154 23.1422C20.546 22.9053 20.8216 22.7168 21.1259 22.5877C21.4303 22.4587 21.7574 22.3917 22.088 22.3906H41.7683C42.225 22.3923 42.6724 22.5198 43.0613 22.7592C43.4502 22.9985 43.7656 23.3404 43.9729 23.7473L46.7796 29.2419C46.9861 29.6494 47.3013 29.9918 47.6904 30.2313C48.0795 30.4707 48.5273 30.5978 48.9842 30.5985H76.1178C76.7744 30.5985 77.4042 30.8594 77.8685 31.3237C78.3328 31.7881 78.5937 32.4178 78.5937 33.0745V63.0317C78.5937 63.6891 78.3331 64.3198 77.869 64.7854C77.4049 65.2511 76.7752 65.5138 76.1178 65.5161Z" fill="white" stroke="#D9D9D9" stroke-linecap="round" stroke-linejoin="round"/>
<path id="Vector_15" d="M67.7962 31.8906C64.6749 31.889 61.6231 32.813 59.027 34.5459C56.4309 36.2788 54.4071 38.7427 53.2114 41.6259C52.0158 44.5092 51.7021 47.6823 52.31 50.7438C52.9179 53.8054 54.4201 56.6179 56.6266 58.8256C58.8332 61.0333 61.6449 62.537 64.7061 63.1466C67.7673 63.7561 70.9406 63.4441 73.8244 62.25C76.7083 61.0559 79.1733 59.0334 80.9076 56.4382C82.6419 53.8431 83.5676 50.7918 83.5676 47.6705C83.5676 43.4869 81.9062 39.4745 78.9488 36.5154C75.9913 33.5564 71.9798 31.8929 67.7962 31.8906Z" fill="white" stroke="#D9D9D9" stroke-linecap="round" stroke-linejoin="round"/>
<path id="Vector_16" d="M79.0273 59.1172L83.2331 63.3229" stroke="#D9D9D9" stroke-linecap="round" stroke-linejoin="round"/>
<path id="Vector_17" d="M82.7578 61.2816L81.4511 62.6484C80.8654 63.2611 80.8873 64.2326 81.5 64.8183L92.839 75.6579C93.4517 76.2436 94.4232 76.2218 95.0089 75.6091L96.3155 74.2422C96.9012 73.6296 96.8794 72.6581 96.2667 72.0723L84.9277 61.2328C84.315 60.647 83.3435 60.6689 82.7578 61.2816Z" fill="#0D9490"/>
<path id="Vector_18" d="M91.1484 1.375V5.02956" stroke="#D9D9D9" stroke-linecap="round" stroke-linejoin="round"/>
<path id="Vector_19" d="M89.3242 3.20312H92.9788" stroke="#D9D9D9" stroke-linecap="round" stroke-linejoin="round"/>
</g>
</svg>
