<svg width="280" height="62" viewBox="0 0 280 62" fill="none" xmlns="http://www.w3.org/2000/svg">
<path fill-rule="evenodd" clip-rule="evenodd" d="M51.4168 26.2797C40.0581 26.2796 30.8501 17.0716 30.8501 5.71293C30.8501 5.71292 30.8501 5.7129 30.8501 5.71289H39.9909C39.9909 5.7129 39.9909 5.71291 39.9909 5.71293C39.9909 12.0233 45.1064 17.1389 51.4168 17.1389V26.2797Z" fill="#38B6FF"/>
<rect x="45.7036" y="11.426" width="11.426" height="11.426" rx="5.71298" transform="rotate(-90 45.7036 11.426)" fill="#38B6FF"/>
<path fill-rule="evenodd" clip-rule="evenodd" d="M5.71308 26.2797C17.0718 26.2796 26.2798 17.0716 26.2798 5.71293C26.2798 5.71292 26.2798 5.7129 26.2798 5.71289H17.139C17.139 5.7129 17.139 5.71291 17.139 5.71293C17.139 12.0233 12.0235 17.1389 5.71308 17.1389V26.2797Z" fill="#7ED957"/>
<rect width="11.426" height="11.426" rx="5.71298" transform="matrix(0 -1 -1 0 11.4258 11.426)" fill="#7ED957"/>
<path fill-rule="evenodd" clip-rule="evenodd" d="M51.4168 30.85V39.9908C45.1064 39.9908 39.9909 45.1064 39.9909 51.4167H30.8501C30.8501 40.0581 40.0581 30.85 51.4168 30.85Z" fill="#FF3131"/>
<rect width="11.426" height="11.426" rx="5.71298" transform="matrix(0 1 1 0 45.7036 45.7039)" fill="#FF3131"/>
<path fill-rule="evenodd" clip-rule="evenodd" d="M5.71308 30.85V39.9908C12.0234 39.9908 17.139 45.1064 17.139 51.4167H26.2798C26.2798 40.0581 17.0717 30.85 5.71308 30.85Z" fill="#FFDE59"/>
<rect x="11.4258" y="45.7039" width="11.426" height="11.426" rx="5.71298" transform="rotate(90 11.4258 45.7039)" fill="#FFDE59"/>
<path d="M68.7949 48.0342H64.9482V52.1157H63.7612V42.8735H69.436V43.8765H64.9482V47.0376H68.7949V48.0342ZM71.645 45.2476H75.1553V51.1001H77.396V52.1157H71.645V51.1001H73.981V46.2695H71.645V45.2476ZM73.8286 43.4448C73.8286 43.3433 73.8434 43.248 73.873 43.1592C73.9069 43.0703 73.9577 42.9941 74.0254 42.9307C74.0804 42.8757 74.1502 42.8333 74.2349 42.8037C74.3237 42.7699 74.4232 42.7529 74.5332 42.7529C74.6432 42.7529 74.7406 42.7699 74.8252 42.8037C74.9098 42.8333 74.9797 42.8757 75.0347 42.9307C75.1024 42.9899 75.1532 43.064 75.187 43.1528C75.2209 43.2417 75.2378 43.339 75.2378 43.4448C75.2378 43.6353 75.1785 43.7939 75.0601 43.9209C74.9416 44.0479 74.766 44.1113 74.5332 44.1113C74.2962 44.1113 74.1185 44.0479 74 43.9209C73.8857 43.7939 73.8286 43.6353 73.8286 43.4448ZM79.2686 52.1157V45.2476H80.3223L80.4048 46.2632C80.5063 46.1193 80.6164 45.9881 80.7349 45.8696C80.8576 45.7469 80.9867 45.6411 81.1221 45.5522C81.3252 45.4168 81.5452 45.3132 81.7822 45.2412C82.0234 45.165 82.2773 45.1248 82.5439 45.1206C82.9036 45.1206 83.2295 45.1714 83.5215 45.2729C83.8177 45.3745 84.0695 45.5332 84.2769 45.749C84.4842 45.9648 84.6429 46.2399 84.7529 46.5742C84.8672 46.9043 84.9243 47.2979 84.9243 47.7549V52.1157H83.75V47.7803C83.75 47.4756 83.7161 47.2174 83.6484 47.0059C83.5807 46.7943 83.4813 46.6229 83.3501 46.4917C83.2147 46.3605 83.0496 46.2653 82.855 46.2061C82.6646 46.1468 82.4445 46.1172 82.1948 46.1172C81.979 46.1172 81.778 46.1489 81.5918 46.2124C81.4056 46.2716 81.2342 46.3542 81.0776 46.46C80.9507 46.5531 80.8322 46.661 80.7222 46.7837C80.6164 46.9064 80.5233 47.0418 80.4429 47.1899V52.1157H79.2686ZM86.854 48.6245C86.854 48.1125 86.9175 47.6427 87.0444 47.2153C87.1756 46.7837 87.3618 46.4134 87.603 46.1045C87.84 45.7956 88.1278 45.5544 88.4663 45.3809C88.8049 45.2074 89.1836 45.1206 89.6025 45.1206C90.013 45.1206 90.3706 45.1904 90.6753 45.3301C90.9842 45.4655 91.2508 45.6644 91.4751 45.9268V42.3657H92.6494V52.1157H91.5703L91.5195 51.3921C91.291 51.6714 91.0181 51.883 90.7007 52.0269C90.3833 52.1707 90.013 52.2427 89.5898 52.2427C89.1751 52.2427 88.7985 52.1538 88.46 51.9761C88.1257 51.7983 87.84 51.5529 87.603 51.2397C87.366 50.9266 87.182 50.5584 87.0508 50.1353C86.9196 49.7078 86.854 49.2487 86.854 48.7578V48.6245ZM88.0283 48.7578C88.0283 49.0921 88.0643 49.4095 88.1362 49.71C88.2082 50.0104 88.3203 50.2749 88.4727 50.5034C88.6208 50.7319 88.8112 50.9139 89.0439 51.0493C89.2767 51.1805 89.556 51.2461 89.8818 51.2461C90.2754 51.2461 90.6012 51.1572 90.8594 50.9795C91.1175 50.8018 91.3228 50.5627 91.4751 50.2622V47.0757C91.3228 46.7964 91.1175 46.5679 90.8594 46.3901C90.6012 46.2082 90.2796 46.1172 89.8945 46.1172C89.5645 46.1172 89.2809 46.1849 89.0439 46.3203C88.8112 46.4557 88.6208 46.6377 88.4727 46.8662C88.3203 47.099 88.2082 47.3677 88.1362 47.6724C88.0643 47.9728 88.0283 48.2902 88.0283 48.6245V48.7578ZM105.415 47.5137L107.522 42.8735H108.855L105.979 48.6689L105.96 52.1157H104.869L104.85 48.6689L101.974 42.8735H103.313L105.415 47.5137ZM110.169 48.6182C110.169 48.123 110.241 47.6639 110.385 47.2407C110.529 46.8133 110.736 46.443 111.007 46.1299C111.273 45.8167 111.599 45.5713 111.984 45.3936C112.369 45.2116 112.803 45.1206 113.286 45.1206C113.772 45.1206 114.208 45.2116 114.593 45.3936C114.983 45.5713 115.313 45.8167 115.583 46.1299C115.85 46.443 116.055 46.8133 116.199 47.2407C116.343 47.6639 116.415 48.123 116.415 48.6182V48.7578C116.415 49.2529 116.343 49.7121 116.199 50.1353C116.055 50.5584 115.85 50.9266 115.583 51.2397C115.313 51.5529 114.985 51.7983 114.6 51.9761C114.215 52.1538 113.781 52.2427 113.298 52.2427C112.812 52.2427 112.374 52.1538 111.984 51.9761C111.599 51.7983 111.273 51.5529 111.007 51.2397C110.736 50.9266 110.529 50.5584 110.385 50.1353C110.241 49.7121 110.169 49.2529 110.169 48.7578V48.6182ZM111.343 48.7578C111.343 49.0964 111.383 49.4201 111.464 49.729C111.544 50.0337 111.667 50.3024 111.832 50.5352C111.993 50.7679 112.196 50.952 112.441 51.0874C112.687 51.2228 112.972 51.2905 113.298 51.2905C113.62 51.2905 113.901 51.2228 114.143 51.0874C114.388 50.952 114.593 50.7679 114.758 50.5352C114.919 50.3024 115.04 50.0337 115.12 49.729C115.201 49.4201 115.241 49.0964 115.241 48.7578V48.6182C115.241 48.2839 115.198 47.9644 115.114 47.6597C115.033 47.3507 114.913 47.0799 114.752 46.8472C114.587 46.6144 114.382 46.4303 114.136 46.2949C113.895 46.1553 113.611 46.0854 113.286 46.0854C112.96 46.0854 112.676 46.1553 112.435 46.2949C112.194 46.4303 111.993 46.6144 111.832 46.8472C111.667 47.0799 111.544 47.3507 111.464 47.6597C111.383 47.9644 111.343 48.2839 111.343 48.6182V48.7578ZM122.833 52.1157L122.763 51.1699C122.534 51.5085 122.249 51.7729 121.906 51.9634C121.563 52.1496 121.167 52.2427 120.719 52.2427C120.359 52.2427 120.033 52.1877 119.741 52.0776C119.449 51.9634 119.2 51.7878 118.992 51.5508C118.785 51.3138 118.624 51.0133 118.51 50.6494C118.4 50.2812 118.345 49.8411 118.345 49.3291V45.2476H119.519V49.3418C119.519 49.7142 119.549 50.0231 119.608 50.2686C119.667 50.514 119.756 50.7087 119.875 50.8525C119.993 51.0007 120.137 51.1043 120.306 51.1636C120.48 51.2228 120.679 51.2524 120.903 51.2524C121.165 51.2524 121.4 51.2228 121.607 51.1636C121.815 51.1001 121.995 51.0133 122.147 50.9033C122.274 50.8145 122.384 50.7087 122.477 50.5859C122.574 50.459 122.655 50.3215 122.718 50.1733V45.2476H123.899V52.1157H122.833ZM130.615 45.1206C130.831 45.1206 131.055 45.1354 131.288 45.165C131.525 45.1947 131.702 45.2349 131.821 45.2856L131.662 46.4346C131.434 46.3838 131.216 46.3478 131.008 46.3267C130.805 46.3013 130.591 46.2886 130.367 46.2886C130.079 46.2886 129.819 46.3245 129.586 46.3965C129.354 46.4642 129.151 46.5658 128.977 46.7012C128.82 46.8197 128.683 46.9657 128.564 47.1392C128.45 47.3084 128.355 47.4989 128.279 47.7104V52.1157H127.098V45.2476H128.215L128.266 46.168L128.272 46.3394C128.552 45.9627 128.886 45.6665 129.275 45.4507C129.669 45.2306 130.115 45.1206 130.615 45.1206ZM141.609 52.1157V42.8735H143.748C144.108 42.8778 144.446 42.9159 144.764 42.9878C145.085 43.0555 145.382 43.1528 145.652 43.2798C146.029 43.4533 146.361 43.6818 146.649 43.9653C146.941 44.2446 147.174 44.5684 147.347 44.9365C147.504 45.2497 147.622 45.5924 147.703 45.9648C147.787 46.3372 147.832 46.735 147.836 47.1582V47.8374C147.836 48.2437 147.796 48.6287 147.715 48.9927C147.639 49.3566 147.527 49.6909 147.379 49.9956C147.227 50.313 147.034 50.6007 146.801 50.8589C146.569 51.117 146.308 51.3371 146.021 51.519C145.716 51.7095 145.371 51.8555 144.986 51.957C144.605 52.0586 144.192 52.1115 143.748 52.1157H141.609ZM142.802 43.8384V51.1572H143.748C144.087 51.153 144.393 51.1107 144.668 51.0303C144.948 50.9499 145.195 50.8356 145.411 50.6875C145.64 50.5352 145.836 50.349 146.001 50.1289C146.171 49.9046 146.304 49.6549 146.401 49.3799C146.486 49.1556 146.549 48.9144 146.592 48.6562C146.634 48.3939 146.657 48.1209 146.662 47.8374V47.1455C146.657 46.8577 146.632 46.5827 146.585 46.3203C146.543 46.0537 146.478 45.8062 146.389 45.5776C146.274 45.2814 146.12 45.0148 145.925 44.7778C145.735 44.5366 145.5 44.342 145.221 44.1938C145.022 44.0838 144.8 43.9992 144.554 43.9399C144.309 43.8765 144.04 43.8426 143.748 43.8384H142.802ZM154.038 45.1206C154.253 45.1206 154.478 45.1354 154.71 45.165C154.947 45.1947 155.125 45.2349 155.244 45.2856L155.085 46.4346C154.856 46.3838 154.639 46.3478 154.431 46.3267C154.228 46.3013 154.014 46.2886 153.79 46.2886C153.502 46.2886 153.242 46.3245 153.009 46.3965C152.777 46.4642 152.573 46.5658 152.4 46.7012C152.243 46.8197 152.106 46.9657 151.987 47.1392C151.873 47.3084 151.778 47.4989 151.702 47.7104V52.1157H150.521V45.2476H151.638L151.689 46.168L151.695 46.3394C151.975 45.9627 152.309 45.6665 152.698 45.4507C153.092 45.2306 153.538 45.1206 154.038 45.1206ZM160.379 52.2427C159.896 52.2427 159.452 52.1602 159.046 51.9951C158.644 51.8301 158.299 51.5994 158.011 51.3032C157.723 51.007 157.499 50.6558 157.338 50.2495C157.178 49.8433 157.097 49.401 157.097 48.9229V48.6562C157.097 48.1019 157.186 47.6068 157.364 47.1709C157.542 46.7308 157.778 46.3584 158.075 46.0537C158.367 45.7533 158.699 45.5226 159.071 45.3618C159.448 45.201 159.833 45.1206 160.227 45.1206C160.722 45.1206 161.153 45.2074 161.521 45.3809C161.894 45.5501 162.203 45.785 162.448 46.0854C162.694 46.3901 162.876 46.7477 162.994 47.1582C163.117 47.5687 163.178 48.013 163.178 48.4912V49.0181H158.271V49.0625C158.301 49.3968 158.367 49.6909 158.468 49.9448C158.574 50.1987 158.718 50.423 158.9 50.6177C159.086 50.825 159.31 50.988 159.573 51.1064C159.835 51.2249 160.125 51.2842 160.442 51.2842C160.861 51.2842 161.234 51.1995 161.56 51.0303C161.885 50.861 162.156 50.6367 162.372 50.3574L163.089 50.916C162.861 51.263 162.518 51.5719 162.061 51.8428C161.608 52.1094 161.048 52.2427 160.379 52.2427ZM160.227 46.0854C159.99 46.0854 159.765 46.1299 159.554 46.2188C159.342 46.3034 159.152 46.4282 158.982 46.5933C158.813 46.7625 158.669 46.9699 158.551 47.2153C158.437 47.4565 158.356 47.7358 158.31 48.0532H162.004V47.9961C162.004 47.7845 161.964 47.5581 161.883 47.3169C161.803 47.0715 161.691 46.8599 161.547 46.6821C161.403 46.5044 161.221 46.3605 161.001 46.2505C160.785 46.1405 160.527 46.0854 160.227 46.0854ZM169.666 52.1157C169.619 52.0269 169.581 51.9168 169.551 51.7856C169.526 51.6502 169.507 51.5106 169.494 51.3667C169.376 51.4852 169.242 51.5973 169.094 51.7031C168.95 51.8089 168.792 51.902 168.618 51.9824C168.44 52.0628 168.252 52.1263 168.053 52.1729C167.854 52.2194 167.643 52.2427 167.418 52.2427C167.055 52.2427 166.724 52.1898 166.428 52.084C166.136 51.9782 165.889 51.8343 165.686 51.6523C165.478 51.4746 165.317 51.263 165.203 51.0176C165.093 50.7679 165.038 50.4992 165.038 50.2114C165.038 49.8348 165.112 49.5047 165.26 49.2212C165.413 48.9377 165.626 48.7007 165.901 48.5103C166.176 48.3241 166.507 48.1844 166.892 48.0913C167.281 47.9982 167.715 47.9517 168.193 47.9517H169.475V47.4121C169.475 47.2048 169.437 47.0186 169.361 46.8535C169.285 46.6885 169.177 46.5467 169.037 46.4282C168.897 46.314 168.726 46.2251 168.523 46.1616C168.324 46.0981 168.1 46.0664 167.85 46.0664C167.617 46.0664 167.408 46.096 167.222 46.1553C167.04 46.2145 166.885 46.2928 166.758 46.3901C166.631 46.4875 166.532 46.6038 166.46 46.7393C166.392 46.8704 166.358 47.008 166.358 47.1519H165.178C165.182 46.9022 165.245 46.6567 165.368 46.4155C165.495 46.1743 165.677 45.9564 165.914 45.7617C166.147 45.5713 166.43 45.4168 166.765 45.2983C167.103 45.1799 167.486 45.1206 167.914 45.1206C168.303 45.1206 168.665 45.1693 168.999 45.2666C169.333 45.3597 169.623 45.5015 169.869 45.6919C170.11 45.8866 170.3 46.1278 170.44 46.4155C170.58 46.7033 170.649 47.0397 170.649 47.4248V50.6177C170.649 50.8462 170.671 51.0895 170.713 51.3477C170.755 51.6016 170.814 51.8237 170.891 52.0142V52.1157H169.666ZM167.59 51.2207C167.818 51.2207 168.032 51.1911 168.231 51.1318C168.43 51.0726 168.612 50.9943 168.777 50.897C168.938 50.7996 169.077 50.6896 169.196 50.5669C169.314 50.4399 169.407 50.3088 169.475 50.1733V48.7832H168.383C167.977 48.7832 167.622 48.8192 167.317 48.8911C167.016 48.9588 166.777 49.0646 166.6 49.2085C166.473 49.3101 166.375 49.4307 166.308 49.5703C166.244 49.71 166.212 49.8687 166.212 50.0464C166.212 50.2157 166.24 50.3722 166.295 50.5161C166.354 50.66 166.441 50.7827 166.555 50.8843C166.669 50.9901 166.813 51.0726 166.987 51.1318C167.16 51.1911 167.361 51.2207 167.59 51.2207ZM173.5 45.2476L173.531 45.895C173.671 45.6538 173.853 45.4655 174.077 45.3301C174.306 45.1947 174.581 45.1248 174.902 45.1206C175.084 45.1206 175.247 45.1418 175.391 45.1841C175.539 45.2222 175.668 45.2793 175.778 45.3555C175.859 45.4147 175.931 45.4867 175.994 45.5713C176.062 45.6559 176.119 45.7511 176.166 45.8569C176.225 45.7596 176.295 45.6686 176.375 45.584C176.455 45.4993 176.542 45.4253 176.635 45.3618C176.754 45.2899 176.885 45.2327 177.029 45.1904C177.177 45.1481 177.338 45.1248 177.511 45.1206C177.748 45.1206 177.962 45.1566 178.152 45.2285C178.343 45.2962 178.504 45.3978 178.635 45.5332C178.779 45.6855 178.889 45.8844 178.965 46.1299C179.041 46.3711 179.079 46.6567 179.079 46.9868V52.1157H177.962V46.9741C177.962 46.8302 177.945 46.7033 177.911 46.5933C177.877 46.4832 177.829 46.3923 177.765 46.3203C177.697 46.2526 177.613 46.2018 177.511 46.168C177.414 46.1341 177.3 46.1172 177.168 46.1172C177.029 46.1172 176.908 46.1362 176.807 46.1743C176.705 46.2124 176.62 46.2632 176.553 46.3267C176.485 46.3944 176.432 46.4727 176.394 46.5615C176.356 46.6462 176.331 46.7414 176.318 46.8472C176.318 46.8683 176.318 46.8895 176.318 46.9106C176.318 46.9276 176.318 46.9487 176.318 46.9741V52.1157H175.201V46.9678C175.201 46.8239 175.184 46.6969 175.15 46.5869C175.12 46.4769 175.072 46.3859 175.004 46.314C174.94 46.2463 174.86 46.1976 174.763 46.168C174.67 46.1341 174.56 46.1172 174.433 46.1172C174.293 46.1172 174.17 46.1341 174.064 46.168C173.963 46.1976 173.876 46.242 173.804 46.3013C173.749 46.3478 173.701 46.4007 173.658 46.46C173.62 46.5192 173.588 46.5827 173.563 46.6504V52.1157H172.446V45.2476H173.5ZM194.809 43.8765H191.952V52.1157H190.81V43.8765H187.953V42.8735H194.809V43.8765ZM196.053 48.6182C196.053 48.123 196.125 47.6639 196.269 47.2407C196.412 46.8133 196.62 46.443 196.891 46.1299C197.157 45.8167 197.483 45.5713 197.868 45.3936C198.253 45.2116 198.687 45.1206 199.169 45.1206C199.656 45.1206 200.092 45.2116 200.477 45.3936C200.866 45.5713 201.196 45.8167 201.467 46.1299C201.734 46.443 201.939 46.8133 202.083 47.2407C202.227 47.6639 202.299 48.123 202.299 48.6182V48.7578C202.299 49.2529 202.227 49.7121 202.083 50.1353C201.939 50.5584 201.734 50.9266 201.467 51.2397C201.196 51.5529 200.868 51.7983 200.483 51.9761C200.098 52.1538 199.665 52.2427 199.182 52.2427C198.695 52.2427 198.257 52.1538 197.868 51.9761C197.483 51.7983 197.157 51.5529 196.891 51.2397C196.62 50.9266 196.412 50.5584 196.269 50.1353C196.125 49.7121 196.053 49.2529 196.053 48.7578V48.6182ZM197.227 48.7578C197.227 49.0964 197.267 49.4201 197.348 49.729C197.428 50.0337 197.551 50.3024 197.716 50.5352C197.877 50.7679 198.08 50.952 198.325 51.0874C198.571 51.2228 198.856 51.2905 199.182 51.2905C199.504 51.2905 199.785 51.2228 200.026 51.0874C200.272 50.952 200.477 50.7679 200.642 50.5352C200.803 50.3024 200.924 50.0337 201.004 49.729C201.084 49.4201 201.125 49.0964 201.125 48.7578V48.6182C201.125 48.2839 201.082 47.9644 200.998 47.6597C200.917 47.3507 200.797 47.0799 200.636 46.8472C200.471 46.6144 200.265 46.4303 200.02 46.2949C199.779 46.1553 199.495 46.0854 199.169 46.0854C198.844 46.0854 198.56 46.1553 198.319 46.2949C198.078 46.4303 197.877 46.6144 197.716 46.8472C197.551 47.0799 197.428 47.3507 197.348 47.6597C197.267 47.9644 197.227 48.2839 197.227 48.6182V48.7578ZM203.968 48.6245C203.968 48.1125 204.032 47.6427 204.159 47.2153C204.29 46.7837 204.476 46.4134 204.717 46.1045C204.954 45.7956 205.242 45.5544 205.581 45.3809C205.919 45.2074 206.298 45.1206 206.717 45.1206C207.127 45.1206 207.485 45.1904 207.79 45.3301C208.098 45.4655 208.365 45.6644 208.589 45.9268V42.3657H209.764V52.1157H208.685L208.634 51.3921C208.405 51.6714 208.132 51.883 207.815 52.0269C207.498 52.1707 207.127 52.2427 206.704 52.2427C206.289 52.2427 205.913 52.1538 205.574 51.9761C205.24 51.7983 204.954 51.5529 204.717 51.2397C204.48 50.9266 204.296 50.5584 204.165 50.1353C204.034 49.7078 203.968 49.2487 203.968 48.7578V48.6245ZM205.143 48.7578C205.143 49.0921 205.179 49.4095 205.25 49.71C205.322 50.0104 205.435 50.2749 205.587 50.5034C205.735 50.7319 205.925 50.9139 206.158 51.0493C206.391 51.1805 206.67 51.2461 206.996 51.2461C207.39 51.2461 207.715 51.1572 207.974 50.9795C208.232 50.8018 208.437 50.5627 208.589 50.2622V47.0757C208.437 46.7964 208.232 46.5679 207.974 46.3901C207.715 46.2082 207.394 46.1172 207.009 46.1172C206.679 46.1172 206.395 46.1849 206.158 46.3203C205.925 46.4557 205.735 46.6377 205.587 46.8662C205.435 47.099 205.322 47.3677 205.25 47.6724C205.179 47.9728 205.143 48.2902 205.143 48.6245V48.7578ZM216.511 52.1157C216.465 52.0269 216.427 51.9168 216.397 51.7856C216.372 51.6502 216.353 51.5106 216.34 51.3667C216.221 51.4852 216.088 51.5973 215.94 51.7031C215.796 51.8089 215.637 51.902 215.464 51.9824C215.286 52.0628 215.098 52.1263 214.899 52.1729C214.7 52.2194 214.488 52.2427 214.264 52.2427C213.9 52.2427 213.57 52.1898 213.274 52.084C212.982 51.9782 212.734 51.8343 212.531 51.6523C212.324 51.4746 212.163 51.263 212.049 51.0176C211.939 50.7679 211.884 50.4992 211.884 50.2114C211.884 49.8348 211.958 49.5047 212.106 49.2212C212.258 48.9377 212.472 48.7007 212.747 48.5103C213.022 48.3241 213.352 48.1844 213.737 48.0913C214.127 47.9982 214.56 47.9517 215.039 47.9517H216.321V47.4121C216.321 47.2048 216.283 47.0186 216.207 46.8535C216.13 46.6885 216.022 46.5467 215.883 46.4282C215.743 46.314 215.572 46.2251 215.369 46.1616C215.17 46.0981 214.945 46.0664 214.696 46.0664C214.463 46.0664 214.254 46.096 214.067 46.1553C213.885 46.2145 213.731 46.2928 213.604 46.3901C213.477 46.4875 213.378 46.6038 213.306 46.7393C213.238 46.8704 213.204 47.008 213.204 47.1519H212.023C212.028 46.9022 212.091 46.6567 212.214 46.4155C212.341 46.1743 212.523 45.9564 212.76 45.7617C212.993 45.5713 213.276 45.4168 213.61 45.2983C213.949 45.1799 214.332 45.1206 214.759 45.1206C215.149 45.1206 215.51 45.1693 215.845 45.2666C216.179 45.3597 216.469 45.5015 216.714 45.6919C216.956 45.8866 217.146 46.1278 217.286 46.4155C217.425 46.7033 217.495 47.0397 217.495 47.4248V50.6177C217.495 50.8462 217.516 51.0895 217.559 51.3477C217.601 51.6016 217.66 51.8237 217.736 52.0142V52.1157H216.511ZM214.436 51.2207C214.664 51.2207 214.878 51.1911 215.077 51.1318C215.276 51.0726 215.458 50.9943 215.623 50.897C215.783 50.7996 215.923 50.6896 216.042 50.5669C216.16 50.4399 216.253 50.3088 216.321 50.1733V48.7832H215.229C214.823 48.7832 214.467 48.8192 214.163 48.8911C213.862 48.9588 213.623 49.0646 213.445 49.2085C213.318 49.3101 213.221 49.4307 213.153 49.5703C213.09 49.71 213.058 49.8687 213.058 50.0464C213.058 50.2157 213.086 50.3722 213.141 50.5161C213.2 50.66 213.287 50.7827 213.401 50.8843C213.515 50.9901 213.659 51.0726 213.833 51.1318C214.006 51.1911 214.207 51.2207 214.436 51.2207ZM220.358 54.8896C220.248 54.8896 220.119 54.877 219.971 54.8516C219.823 54.8262 219.71 54.805 219.634 54.7881L219.825 53.8296C219.931 53.8381 220.034 53.8444 220.136 53.8486C220.242 53.8571 220.324 53.8613 220.383 53.8613C220.544 53.8613 220.69 53.8169 220.821 53.728C220.957 53.6392 221.077 53.5334 221.183 53.4106C221.285 53.2879 221.371 53.161 221.443 53.0298C221.52 52.8986 221.579 52.7907 221.621 52.7061L222.091 51.792L219.133 45.2476H220.447L222.332 49.6782L222.637 50.5098L222.96 49.7036L224.731 45.2476H226.045L222.561 53.1758C222.48 53.3535 222.376 53.5418 222.25 53.7407C222.127 53.9396 221.977 54.1237 221.799 54.293C221.621 54.4622 221.414 54.604 221.177 54.7183C220.94 54.8325 220.667 54.8896 220.358 54.8896Z" fill="black"/>
<path fill-rule="evenodd" clip-rule="evenodd" d="M108.359 6H103.813V31.1157H107.901L108.114 29.2353C108.299 29.4752 108.495 29.6986 108.702 29.9057C108.909 30.102 109.133 30.2818 109.373 30.4453C109.82 30.7724 110.321 31.0176 110.877 31.1811C111.444 31.3556 112.071 31.4428 112.757 31.4428C113.51 31.4428 114.196 31.3447 114.818 31.1484C115.45 30.9631 116.017 30.6906 116.518 30.3309C117.074 29.9493 117.554 29.4697 117.957 28.892C118.371 28.3142 118.704 27.671 118.955 26.9625C119.183 26.3193 119.358 25.6217 119.478 24.8695C119.598 24.1064 119.658 23.2998 119.658 22.4495V22.1061C119.658 21.0378 119.56 20.0349 119.363 19.0975C119.178 18.16 118.889 17.3152 118.497 16.563C118.246 16.0943 117.957 15.6637 117.63 15.2712C117.303 14.8679 116.938 14.5245 116.535 14.2411C116.033 13.8705 115.461 13.587 114.818 13.3908C114.185 13.1946 113.488 13.0965 112.725 13.0965C112.169 13.0965 111.651 13.1565 111.171 13.2764C110.703 13.3854 110.266 13.5543 109.863 13.7833C109.58 13.9359 109.313 14.1212 109.062 14.3392C108.811 14.5463 108.577 14.7752 108.359 15.026V6ZM215.068 6V15.0096C214.523 14.3992 213.896 13.9304 213.187 13.6034C212.49 13.2655 211.678 13.0965 210.751 13.0965C209.65 13.0965 208.669 13.3145 207.808 13.7506C206.958 14.1866 206.233 14.8025 205.633 15.5983C205.034 16.394 204.576 17.3479 204.26 18.4598C203.954 19.5717 203.802 20.798 203.802 22.1388V22.4822C203.802 23.7685 203.96 24.9622 204.276 26.0632C204.592 27.1533 205.05 28.0962 205.649 28.892C206.238 29.6877 206.958 30.3145 207.808 30.7724C208.669 31.2193 209.639 31.4428 210.718 31.4428C211.71 31.4428 212.582 31.252 213.335 30.8705C214.087 30.4889 214.741 29.9548 215.297 29.268L215.526 31.1157H219.63V6H215.068ZM280 13.4236H276.075L275.895 15.1078C275.677 14.8352 275.437 14.59 275.176 14.3719C274.914 14.143 274.631 13.9468 274.325 13.7833C273.922 13.5544 273.47 13.3854 272.968 13.2764C272.478 13.1565 271.933 13.0965 271.333 13.0965C270.221 13.0965 269.224 13.3146 268.341 13.7506C267.458 14.1866 266.706 14.8025 266.084 15.5983C265.463 16.3941 264.983 17.3479 264.645 18.4598C264.318 19.5717 264.155 20.798 264.155 22.1389V22.4822C264.155 23.7685 264.318 24.9622 264.645 26.0632C264.983 27.1533 265.463 28.0962 266.084 28.892C266.706 29.6878 267.452 30.3146 268.324 30.7724C269.207 31.2193 270.199 31.4428 271.3 31.4428C271.856 31.4428 272.374 31.3828 272.854 31.2629C273.344 31.143 273.791 30.9741 274.195 30.756C274.467 30.6034 274.723 30.429 274.963 30.2328C275.203 30.0366 275.432 29.8186 275.65 29.5787V30.5925C275.65 31.1921 275.563 31.7317 275.388 32.2113C275.225 32.691 274.985 33.0943 274.669 33.4213C274.32 33.7811 273.884 34.0536 273.361 34.2389C272.848 34.4242 272.26 34.5169 271.595 34.5169C271.18 34.5169 270.777 34.4733 270.385 34.3861C270.003 34.3097 269.633 34.1898 269.273 34.0263C268.902 33.8628 268.548 33.6502 268.21 33.3886C267.872 33.1379 267.556 32.8436 267.262 32.5056L265.218 35.269C265.599 35.7596 266.057 36.1793 266.591 36.5281C267.125 36.8878 267.692 37.1821 268.292 37.4111C268.891 37.64 269.496 37.8089 270.107 37.918C270.717 38.027 271.29 38.0815 271.824 38.0815C273.066 38.0815 274.2 37.9125 275.225 37.5746C276.26 37.2475 277.149 36.7625 277.89 36.1193C278.62 35.4761 279.187 34.6858 279.591 33.7484C279.763 33.3584 279.899 32.9457 280 32.5104V13.4236ZM63 24.1174C63.0109 25.3492 63.2126 26.423 63.605 27.3387C63.9974 28.2543 64.5479 29.012 65.2565 29.6115C65.9542 30.222 66.7935 30.6798 67.7746 30.985C68.7557 31.2903 69.8458 31.4429 71.0449 31.4429C72.1786 31.4429 73.236 31.2575 74.2171 30.8869C75.209 30.5163 76.0702 29.993 76.8006 29.3172C77.5309 28.6413 78.1032 27.8401 78.5175 26.9135C78.9426 25.976 79.1606 24.9405 79.1715 23.8068L79.1552 7.30821H74.5604V23.8068C74.5604 24.3627 74.4732 24.886 74.2988 25.3765C74.1353 25.8561 73.9009 26.2704 73.5957 26.6192C73.2905 26.968 72.9198 27.246 72.4838 27.4531C72.0478 27.6493 71.5681 27.7474 71.0449 27.7474C70.3908 27.7474 69.8349 27.6602 69.377 27.4858C68.9192 27.3114 68.5486 27.0443 68.2651 26.6846C68.0471 26.3903 67.8836 26.0306 67.7746 25.6054C67.6656 25.1803 67.6111 24.6843 67.6111 24.1174H63ZM268.929 24.5589C268.788 23.9157 268.717 23.2235 268.717 22.4822V22.1389C268.717 21.3976 268.793 20.7054 268.946 20.0622C269.098 19.4082 269.333 18.8359 269.649 18.3453C269.954 17.8657 270.341 17.4896 270.81 17.2171C271.279 16.9337 271.835 16.792 272.478 16.792C272.827 16.792 273.148 16.8247 273.442 16.8901C273.748 16.9555 274.026 17.0481 274.276 17.168C274.571 17.3097 274.832 17.4951 275.061 17.724C275.29 17.9529 275.486 18.22 275.65 18.5252V26.0141C275.497 26.2867 275.317 26.5319 275.11 26.75C274.903 26.968 274.663 27.1533 274.391 27.3059C274.129 27.4476 273.835 27.5566 273.508 27.6329C273.192 27.7092 272.837 27.7474 272.445 27.7474C271.802 27.7474 271.246 27.6111 270.777 27.3386C270.308 27.0661 269.921 26.69 269.616 26.2104C269.311 25.7416 269.082 25.1911 268.929 24.5589ZM244.5 31.1158V13.4236H248.621L248.899 15.8763C249.128 15.5492 249.379 15.2495 249.651 14.9769C249.924 14.7044 250.212 14.4592 250.518 14.2411C251.041 13.8705 251.613 13.5871 252.235 13.3909C252.856 13.1946 253.515 13.0965 254.213 13.0965C255.107 13.0965 255.925 13.2274 256.666 13.489C257.407 13.7506 258.05 14.1648 258.595 14.7317C259.129 15.3094 259.544 16.0507 259.838 16.9555C260.143 17.8493 260.296 18.9394 260.296 20.2257V31.1158H255.75V20.2912C255.75 19.5935 255.668 19.0212 255.505 18.5743C255.352 18.1164 255.129 17.7567 254.834 17.4951C254.54 17.2334 254.186 17.0536 253.772 16.9555C253.357 16.8465 252.889 16.792 252.365 16.792C251.929 16.792 251.526 16.841 251.155 16.9391C250.796 17.0372 250.474 17.1844 250.191 17.3806C249.962 17.5223 249.755 17.6913 249.569 17.8875C249.384 18.0837 249.215 18.3017 249.062 18.5416V31.1158H244.5ZM235.229 13.4235H225.598V17.1353H230.634V27.4203H225.598V31.1157H240.02V27.4203H235.229V13.4235ZM230.487 7.92943C230.367 8.22376 230.307 8.54534 230.307 8.89417C230.307 9.243 230.367 9.57002 230.487 9.87525C230.618 10.1696 230.798 10.4203 231.027 10.6274C231.256 10.8454 231.528 11.0144 231.844 11.1343C232.171 11.2542 232.531 11.3142 232.924 11.3142C233.73 11.3142 234.368 11.0907 234.837 10.6438C235.316 10.1859 235.556 9.60273 235.556 8.89417C235.556 8.18561 235.316 7.60786 234.837 7.16092C234.368 6.70308 233.73 6.47416 232.924 6.47416C232.531 6.47416 232.171 6.53412 231.844 6.65403C231.528 6.77394 231.256 6.93745 231.027 7.14457C230.798 7.36259 230.618 7.62421 230.487 7.92943ZM208.347 22.4822C208.347 23.2235 208.407 23.9157 208.527 24.5588C208.658 25.1911 208.865 25.7416 209.149 26.2103C209.432 26.69 209.797 27.066 210.244 27.3386C210.691 27.6111 211.236 27.7474 211.879 27.7474C212.664 27.7474 213.313 27.5784 213.825 27.2405C214.348 26.9025 214.763 26.4392 215.068 25.8506V18.6887C214.763 18.0891 214.354 17.6258 213.841 17.2988C213.329 16.9609 212.686 16.7919 211.912 16.7919C211.269 16.7919 210.718 16.9336 210.261 17.2171C209.814 17.4896 209.448 17.8657 209.165 18.3453C208.882 18.8358 208.674 19.4081 208.544 20.0622C208.413 20.7054 208.347 21.3976 208.347 22.1388V22.4822ZM184.164 13.4236V31.1158H188.726V18.5416C188.878 18.3017 189.047 18.0837 189.233 17.8875C189.418 17.6913 189.625 17.5223 189.854 17.3806C190.137 17.1844 190.459 17.0372 190.819 16.9391C191.189 16.841 191.593 16.792 192.029 16.792C192.552 16.792 193.021 16.8465 193.435 16.9555C193.849 17.0536 194.203 17.2334 194.498 17.4951C194.792 17.7567 195.016 18.1164 195.168 18.5743C195.332 19.0212 195.413 19.5935 195.413 20.2912V31.1158H199.959V20.2257C199.959 18.9394 199.807 17.8493 199.501 16.9555C199.207 16.0507 198.793 15.3094 198.259 14.7317C197.714 14.1648 197.07 13.7506 196.329 13.489C195.588 13.2274 194.77 13.0965 193.876 13.0965C193.179 13.0965 192.519 13.1946 191.898 13.3909C191.277 13.5871 190.704 13.8705 190.181 14.2411C189.876 14.4592 189.587 14.7044 189.314 14.9769C189.042 15.2495 188.791 15.5492 188.562 15.8763L188.284 13.4236H184.164ZM165.262 13.4235H174.893V27.4203H179.684V31.1157H165.262V27.4203H170.298V17.1353H165.262V13.4235ZM169.971 8.89417C169.971 8.54534 170.031 8.22376 170.151 7.92943C170.281 7.62421 170.461 7.36259 170.69 7.14457C170.919 6.93745 171.192 6.77394 171.508 6.65403C171.835 6.53412 172.195 6.47416 172.587 6.47416C173.394 6.47416 174.031 6.70308 174.5 7.16092C174.98 7.60786 175.22 8.18561 175.22 8.89417C175.22 9.60273 174.98 10.1859 174.5 10.6438C174.031 11.0907 173.394 11.3142 172.587 11.3142C172.195 11.3142 171.835 11.2542 171.508 11.1343C171.192 11.0144 170.919 10.8454 170.69 10.6274C170.461 10.4203 170.281 10.1696 170.151 9.87525C170.031 9.57002 169.971 9.243 169.971 8.89417ZM148.681 21.2559H158.885V17.5278H148.681V11.0527H160.16V7.30821H144.07V31.1158H148.681V21.2559ZM115.112 22.1061C115.112 21.6374 115.09 21.185 115.047 20.749C115.003 20.3129 114.932 19.9041 114.834 19.5226C114.714 19.0757 114.556 18.6778 114.36 18.329C114.174 17.9692 113.891 17.6422 113.51 17.3479C113.259 17.1626 112.975 17.0263 112.659 16.9391C112.343 16.841 111.983 16.7919 111.58 16.7919C111.035 16.7919 110.555 16.8682 110.141 17.0208C109.727 17.1735 109.373 17.3969 109.078 17.6912C108.937 17.833 108.806 17.9965 108.686 18.1818C108.566 18.3562 108.457 18.547 108.359 18.7541V25.8015C108.49 26.0741 108.637 26.3248 108.8 26.5537C108.975 26.7717 109.176 26.9625 109.405 27.126C109.678 27.3331 109.994 27.4912 110.354 27.6002C110.724 27.7092 111.144 27.7637 111.613 27.7637C112.016 27.7637 112.381 27.7147 112.708 27.6165C113.035 27.5184 113.319 27.3822 113.559 27.2078C113.896 26.9679 114.169 26.6573 114.376 26.2757C114.594 25.8833 114.758 25.4418 114.867 24.9513C114.954 24.5915 115.014 24.1991 115.047 23.774C115.09 23.3488 115.112 22.9073 115.112 22.4495V22.1061ZM83.5374 18.5416C83.1667 19.6316 82.9814 20.8198 82.9814 22.1062V22.4495C82.9814 23.7467 83.1667 24.9458 83.5374 26.0468C83.908 27.1369 84.453 28.0853 85.1725 28.892C85.8811 29.6987 86.7531 30.3309 87.7887 30.7887C88.8352 31.2357 90.0234 31.4592 91.3533 31.4592C92.6723 31.4592 93.8496 31.2357 94.8852 30.7887C95.9208 30.3309 96.7929 29.6987 97.5014 28.892C98.21 28.0853 98.7496 27.1369 99.1202 26.0468C99.4909 24.9458 99.6762 23.7467 99.6762 22.4495V22.1062C99.6762 20.8198 99.4909 19.6316 99.1202 18.5416C98.7496 17.4406 98.21 16.4867 97.5014 15.6801C96.782 14.8734 95.9045 14.2411 94.8689 13.7833C93.8333 13.3255 92.6505 13.0965 91.3206 13.0965C89.9907 13.0965 88.808 13.3255 87.7724 13.7833C86.7477 14.2411 85.8811 14.8734 85.1725 15.6801C84.453 16.4867 83.908 17.4406 83.5374 18.5416ZM87.7397 24.5425C87.598 23.8885 87.5271 23.1908 87.5271 22.4495V22.1062C87.5271 21.3867 87.598 20.7054 87.7397 20.0622C87.8814 19.4191 88.1048 18.8522 88.4101 18.3617C88.7153 17.8711 89.1077 17.4842 89.5874 17.2007C90.067 16.9173 90.6448 16.7756 91.3206 16.7756C92.0074 16.7756 92.5906 16.9173 93.0702 17.2007C93.5499 17.4842 93.9423 17.8711 94.2475 18.3617C94.5418 18.8522 94.7599 19.4191 94.9016 20.0622C95.0433 20.7054 95.1141 21.3867 95.1141 22.1062V22.4495C95.1141 23.1908 95.0433 23.8885 94.9016 24.5425C94.7599 25.1857 94.5418 25.7471 94.2475 26.2267C93.9423 26.7173 93.5499 27.1042 93.0702 27.3877C92.5906 27.6711 92.0183 27.8128 91.3533 27.8128C90.6666 27.8128 90.0779 27.6711 89.5874 27.3877C89.1077 27.1042 88.7153 26.7173 88.4101 26.2267C88.1048 25.7471 87.8814 25.1857 87.7397 24.5425Z" fill="url(#paint0_linear_101_7894)"/>
<defs>
<linearGradient id="paint0_linear_101_7894" x1="60.2036" y1="21.8756" x2="280" y2="21.8757" gradientUnits="userSpaceOnUse">
<stop stop-color="white"/>
<stop offset="0.27" stop-color="#073635"/>
</linearGradient>
</defs>
</svg>
